<svg xmlns="http://www.w3.org/2000/svg" viewBox="0 0 600 230">
  <rect width="600" height="230" fill="#fff"/>
  <g stroke="#222" stroke-width="2.5" fill="#fff">
    <rect x="225" y="24" width="30" height="30"/>
    <circle cx="345" cy="39" r="15"/>
    <path d="M255 39h75M292 39v38M180 77h225M180 77v24M292 77v24M405 77v24"/>
    <circle cx="180" cy="116" r="15"/>
    <rect x="277" y="101" width="30" height="30"/>
    <rect x="390" y="101" width="30" height="30" fill="#222"/>
    <path d="M165 154h30M180 131v23M195 154h96M291 154v25"/>
    <rect x="276" y="179" width="30" height="30" fill="#222"/>
  </g>
  <g font-family="Arial,'Microsoft YaHei'" font-size="15" fill="#222">
    <text x="204" y="19">Ⅰ-1</text><text x="350" y="19">Ⅰ-2</text>
    <text x="143" y="122">Ⅱ-1</text><text x="269" y="97">Ⅱ-2</text><text x="425" y="122">Ⅱ-3</text>
    <text x="312" y="204">Ⅲ-1</text>
    <rect x="456" y="30" width="20" height="20" fill="#222"/>
    <text x="486" y="46">患病</text>
    <rect x="456" y="65" width="20" height="20" fill="#fff" stroke="#222"/>
    <text x="486" y="81">正常</text>
  </g>
</svg>
